<svg xmlns="http://www.w3.org/2000/svg" viewBox="0 0 192 192">
  <defs>
    <linearGradient id="bgGrad192" x1="0%" y1="0%" x2="100%" y2="100%">
      <stop offset="0%" style="stop-color:#7d82ea"/>
      <stop offset="100%" style="stop-color:#5a5fcc"/>
    </linearGradient>
  </defs>
  <rect width="192" height="192" rx="36" fill="url(#bgGrad192)"/>
  <g transform="translate(32, 24) scale(0.67)">
    <path fill="#ffffff" d="M96 20c-8 0-16 4-20 12-2 4-3 8-3 12 0 8 4 16 8 20l-4 8H60c-4 0-8 4-8 8v8c0 4 4 8 8 8h8l-12 60c-2 8 4 16 12 16h56c8 0 14-8 12-16l-12-60h8c4 0 8-4 8-8v-8c0-4-4-8-8-8h-17l-4-8c4-4 8-12 8-20 0-4-1-8-3-12-4-8-12-12-20-12zm0 16c4 0 8 4 8 8s-4 8-8 8-8-4-8-8 4-8 8-8z"/>
  </g>
</svg>