<svg xmlns="http://www.w3.org/2000/svg" viewBox="0 0 512 512">
  <defs>
    <linearGradient id="bg" x1="0%" y1="0%" x2="100%" y2="100%">
      <stop offset="0%" style="stop-color:#7d82ea"/>
      <stop offset="100%" style="stop-color:#5a5fcc"/>
    </linearGradient>
  </defs>
  <!-- Background -->
  <rect width="512" height="512" rx="96" fill="url(#bg)"/>
  <!-- Chess Knight - minimalist modern design -->
  <g transform="translate(128, 80)">
    <!-- Knight body -->
    <path d="M128 0C96 0 68 16 48 40c-16 20-24 44-24 68 0 16 4 32 12 46l-32 24c-12 8-20 22-20 38v24c0 14 6 26 16 34l24 24v108c0 20 16 36 36 36h144c20 0 36-16 36-36V298l24-24c10-8 16-20 16-34v-24c0-16-8-30-20-38l-32-24c8-14 12-30 12-46 0-24-8-48-24-68C196 16 168 0 128 0z" fill="rgba(255,255,255,0.95)"/>
    <!-- Eye -->
    <circle cx="88" cy="90" r="16" fill="#7d82ea"/>
    <!-- Nostril hint -->
    <ellipse cx="56" cy="130" rx="8" ry="6" fill="rgba(125,130,234,0.3)"/>
  </g>
</svg>