<svg xmlns="http://www.w3.org/2000/svg" viewBox="0 0 192 192">
  <defs>
    <linearGradient id="bg" x1="0%" y1="0%" x2="100%" y2="100%">
      <stop offset="0%" style="stop-color:#7d82ea"/>
      <stop offset="100%" style="stop-color:#5a5fcc"/>
    </linearGradient>
  </defs>
  <!-- Background -->
  <rect width="192" height="192" rx="40" fill="url(#bg)"/>
  <!-- Chess Knight silhouette - minimalist -->
  <path d="M96 28c-8 0-16 4-22 10-4 4-7 9-8 15-1 4-1 8 0 12l-12 8c-4 3-6 7-6 12v8c0 4 2 8 5 11l8 8v36c0 6 5 11 11 11h48c6 0 11-5 11-11v-36l8-8c3-3 5-7 5-11v-8c0-5-2-9-6-12l-12-8c1-4 1-8 0-12-1-6-4-11-8-15-6-6-14-10-22-10z" fill="rgba(255,255,255,0.95)"/>
  <!-- Eye -->
  <circle cx="82" cy="62" r="5" fill="#7d82ea"/>
</svg>